<svg width="233" height="159" viewBox="0 0 233 159" fill="none" xmlns="http://www.w3.org/2000/svg">
<path d="M154.889 105.537L168.728 121.427L162.438 134.005L127.558 132.289L126.986 122.571L138.423 124.858L154.433 126L155.005 121.999L133.848 111.709L154.889 105.537Z" fill="#EA4403"/>
<path d="M26.3511 65.4025L6.91014 72.2628L2.33567 67.1173L0.0484295 67.6893L5.195 77.4084L30.3535 70.548L26.3511 65.4025Z" fill="#EA4403"/>
<path d="M83.3877 134.85L87.0491 144.477L105.925 153.049L107.546 158.534H116.905L112.12 148.296L95.5381 139.149L96.1102 109.422L54.9411 96.8444L53.2259 103.705L83.3877 134.85Z" fill="#EA4403"/>
<path d="M155.005 158.534H145.856L140.138 149.44L152.146 105.42L162.439 104.848L149.988 148.619L155.005 158.534Z" fill="#FF5000"/>
<path d="M26.9227 88.2698V113.424L20.6331 113.995L29.2099 158.587H38.931L37.7868 151.727L33.2123 126.001L55.0168 103.233L58.944 99.1318L26.9227 88.2698Z" fill="#FF5000"/>
<path d="M208.754 94.5586V99.7029L189.598 118.855H180.736V100.275L154.889 106.681L113.836 116.853L26.9224 88.841L26.3514 65.4024L70.3787 43.1077L150.431 0.230881L208.754 57.9701V80.2659H232.769L208.754 94.5586Z" fill="#FF5000"/>
</svg>
